name Run_40002_GRF.mot
datacolumns 19
datarows 10
range 1.715 1.724
endheader
time	     ground_force_vx	     ground_force_vy	     ground_force_vz	     ground_force_px	     ground_force_py	     ground_force_pz	   l_ground_force_vx	   l_ground_force_vy	   l_ground_force_vz	   l_ground_force_px	   l_ground_force_py	   l_ground_force_pz	     ground_torque_x	     ground_torque_y	     ground_torque_z	   l_ground_torque_x	   l_ground_torque_y	   l_ground_torque_z	
1.715	        210.13719200	       1290.06372100	         50.49258800	          0.75574200	          0.00000000	         -0.32067800	          0.00000000	          0.00000000	          0.00000000	          0.00000000	          0.00000000	          0.00000000	          0.00000000	         -3.40781800	          0.00000000	          0.00000000	          0.00000000	          0.00000000	
1.716	        213.51118500	       1268.88952600	         50.63880900	          0.75242400	          0.00000000	         -0.32078300	          0.00000000	          0.00000000	          0.00000000	          0.00000000	          0.00000000	          0.00000000	          0.00000000	         -3.39619100	          0.00000000	          0.00000000	          0.00000000	          0.00000000	
1.717	        216.59098800	       1247.46228000	         50.74724200	          0.74913600	          0.00000000	         -0.32088900	          0.00000000	          0.00000000	          0.00000000	          0.00000000	          0.00000000	          0.00000000	          0.00000000	         -3.37942300	          0.00000000	          0.00000000	          0.00000000	          0.00000000	
1.718	        219.37435900	       1225.78906300	         50.81807300	          0.74587700	          0.00000000	         -0.32099600	          0.00000000	          0.00000000	          0.00000000	          0.00000000	          0.00000000	          0.00000000	          0.00000000	         -3.35741200	          0.00000000	          0.00000000	          0.00000000	          0.00000000	
1.719	        221.86145000	       1203.87841800	         50.85157000	          0.74264800	          0.00000000	         -0.32110300	          0.00000000	          0.00000000	          0.00000000	          0.00000000	          0.00000000	          0.00000000	          0.00000000	         -3.33007400	          0.00000000	          0.00000000	          0.00000000	          0.00000000	
1.72	        224.05458100	       1181.74023400	         50.84806100	          0.73944900	          0.00000000	         -0.32121100	          0.00000000	          0.00000000	          0.00000000	          0.00000000	          0.00000000	          0.00000000	          0.00000000	         -3.29734400	          0.00000000	          0.00000000	          0.00000000	          0.00000000	
1.721	        225.95800800	       1159.38586400	         50.80793400	          0.73628000	          0.00000000	         -0.32131900	          0.00000000	          0.00000000	          0.00000000	          0.00000000	          0.00000000	          0.00000000	          0.00000000	         -3.25917300	          0.00000000	          0.00000000	          0.00000000	          0.00000000	
1.722	        227.57766700	       1136.82800300	         50.73160900	          0.73314000	          0.00000000	         -0.32142600	          0.00000000	          0.00000000	          0.00000000	          0.00000000	          0.00000000	          0.00000000	          0.00000000	         -3.21553300	          0.00000000	          0.00000000	          0.00000000	          0.00000000	
1.723	        228.92085300	       1114.08117700	         50.61953700	          0.73002600	          0.00000000	         -0.32153400	          0.00000000	          0.00000000	          0.00000000	          0.00000000	          0.00000000	          0.00000000	          0.00000000	         -3.16641500	          0.00000000	          0.00000000	          0.00000000	          0.00000000	
1.724	        229.99592600	       1091.16113300	         50.47219500	          0.72693700	          0.00000000	         -0.32164000	          0.00000000	          0.00000000	          0.00000000	          0.00000000	          0.00000000	          0.00000000	          0.00000000	         -3.11182800	          0.00000000	          0.00000000	          0.00000000	          0.00000000	
